<svg xmlns="http://www.w3.org/2000/svg" width="480" height="192" viewBox="0 0 480 192" font-family="-apple-system,Segoe UI,Helvetica,Arial,sans-serif">
<rect x="0.5" y="0.5" width="479" height="191" rx="12" fill="#161b22" stroke="#30363d"/>
<text x="20" y="34" font-size="11" fill="#8b949e" font-weight="600" text-anchor="start" letter-spacing="1.5">GOVEE API</text>
<rect x="20" y="44" width="111" height="22" rx="11" fill="#3fb950" fill-opacity="0.16" stroke="#3fb950" stroke-opacity="0.5"/>
<circle cx="33" cy="55" r="4" fill="#3fb950"/>
<text x="43" y="59" font-size="12" fill="#3fb950" font-weight="700" text-anchor="start">OPERATIONAL</text>
<text x="460" y="40" font-size="26" fill="#e6edf3" font-weight="700" text-anchor="end">100.0%</text>
<text x="460" y="58" font-size="10.5" fill="#8b949e" font-weight="400" text-anchor="end">uptime / 45d</text>
<rect x="20.0" y="80" width="6.8" height="24" rx="2" fill="#3fb950"/>
<rect x="29.8" y="80" width="6.8" height="24" rx="2" fill="#3fb950"/>
<rect x="39.7" y="80" width="6.8" height="24" rx="2" fill="#3fb950"/>
<rect x="49.5" y="80" width="6.8" height="24" rx="2" fill="#3fb950"/>
<rect x="59.4" y="80" width="6.8" height="24" rx="2" fill="#3fb950"/>
<rect x="69.2" y="80" width="6.8" height="24" rx="2" fill="#3fb950"/>
<rect x="79.1" y="80" width="6.8" height="24" rx="2" fill="#3fb950"/>
<rect x="88.9" y="80" width="6.8" height="24" rx="2" fill="#3fb950"/>
<rect x="98.8" y="80" width="6.8" height="24" rx="2" fill="#3fb950"/>
<rect x="108.6" y="80" width="6.8" height="24" rx="2" fill="#3fb950"/>
<rect x="118.4" y="80" width="6.8" height="24" rx="2" fill="#3fb950"/>
<rect x="128.3" y="80" width="6.8" height="24" rx="2" fill="#3fb950"/>
<rect x="138.1" y="80" width="6.8" height="24" rx="2" fill="#3fb950"/>
<rect x="148.0" y="80" width="6.8" height="24" rx="2" fill="#3fb950"/>
<rect x="157.8" y="80" width="6.8" height="24" rx="2" fill="#3fb950"/>
<rect x="167.7" y="80" width="6.8" height="24" rx="2" fill="#3fb950"/>
<rect x="177.5" y="80" width="6.8" height="24" rx="2" fill="#3fb950"/>
<rect x="187.4" y="80" width="6.8" height="24" rx="2" fill="#3fb950"/>
<rect x="197.2" y="80" width="6.8" height="24" rx="2" fill="#3fb950"/>
<rect x="207.0" y="80" width="6.8" height="24" rx="2" fill="#3fb950"/>
<rect x="216.9" y="80" width="6.8" height="24" rx="2" fill="#3fb950"/>
<rect x="226.7" y="80" width="6.8" height="24" rx="2" fill="#3fb950"/>
<rect x="236.6" y="80" width="6.8" height="24" rx="2" fill="#3fb950"/>
<rect x="246.4" y="80" width="6.8" height="24" rx="2" fill="#3fb950"/>
<rect x="256.3" y="80" width="6.8" height="24" rx="2" fill="#3fb950"/>
<rect x="266.1" y="80" width="6.8" height="24" rx="2" fill="#3fb950"/>
<rect x="276.0" y="80" width="6.8" height="24" rx="2" fill="#3fb950"/>
<rect x="285.8" y="80" width="6.8" height="24" rx="2" fill="#3fb950"/>
<rect x="295.6" y="80" width="6.8" height="24" rx="2" fill="#3fb950"/>
<rect x="305.5" y="80" width="6.8" height="24" rx="2" fill="#3fb950"/>
<rect x="315.3" y="80" width="6.8" height="24" rx="2" fill="#3fb950"/>
<rect x="325.2" y="80" width="6.8" height="24" rx="2" fill="#3fb950"/>
<rect x="335.0" y="80" width="6.8" height="24" rx="2" fill="#3fb950"/>
<rect x="344.9" y="80" width="6.8" height="24" rx="2" fill="#3fb950"/>
<rect x="354.7" y="80" width="6.8" height="24" rx="2" fill="#3fb950"/>
<rect x="364.6" y="80" width="6.8" height="24" rx="2" fill="#3fb950"/>
<rect x="374.4" y="80" width="6.8" height="24" rx="2" fill="#3fb950"/>
<rect x="384.2" y="80" width="6.8" height="24" rx="2" fill="#3fb950"/>
<rect x="394.1" y="80" width="6.8" height="24" rx="2" fill="#3fb950"/>
<rect x="403.9" y="80" width="6.8" height="24" rx="2" fill="#3fb950"/>
<rect x="413.8" y="80" width="6.8" height="24" rx="2" fill="#3fb950"/>
<rect x="423.6" y="80" width="6.8" height="24" rx="2" fill="#3fb950"/>
<rect x="433.5" y="80" width="6.8" height="24" rx="2" fill="#3fb950"/>
<rect x="443.3" y="80" width="6.8" height="24" rx="2" fill="#3fb950"/>
<rect x="453.2" y="80" width="6.8" height="24" rx="2" fill="#3fb950"/>
<text x="20" y="130" font-size="10" fill="#8b949e" font-weight="600" text-anchor="start" letter-spacing="1.2">RESPONSE TIME</text>
<text x="460" y="130" font-size="10.5" fill="#8b949e" font-weight="400" text-anchor="end">avg 227 ms · last 72 checks</text>
<defs><linearGradient id="lg" x1="0" x2="0" y1="0" y2="1"><stop offset="0" stop-color="#3fb950" stop-opacity="0.35"/><stop offset="1" stop-color="#3fb950" stop-opacity="0"/></linearGradient></defs>
<path d="M20,170 L20.0,153.3 L26.2,157.5 L32.4,165.7 L38.6,152.3 L44.8,158.0 L51.0,146.9 L57.2,160.8 L63.4,145.6 L69.6,148.5 L75.8,160.1 L82.0,154.8 L88.2,142.0 L94.4,165.7 L100.6,165.5 L106.8,152.1 L113.0,169.3 L119.2,161.8 L125.4,168.5 L131.5,164.2 L137.7,166.2 L143.9,166.9 L150.1,156.9 L156.3,159.4 L162.5,161.7 L168.7,156.7 L174.9,156.4 L181.1,156.5 L187.3,167.3 L193.5,145.7 L199.7,158.8 L205.9,157.3 L212.1,159.5 L218.3,156.8 L224.5,156.0 L230.7,166.3 L236.9,164.3 L243.1,153.7 L249.3,168.6 L255.5,167.6 L261.7,157.3 L267.9,166.9 L274.1,156.2 L280.3,164.5 L286.5,167.9 L292.7,156.0 L298.9,167.0 L305.1,154.6 L311.3,158.3 L317.5,164.8 L323.7,164.3 L329.9,170.0 L336.1,160.8 L342.3,155.5 L348.5,163.4 L354.6,157.3 L360.8,153.7 L367.0,159.6 L373.2,151.4 L379.4,161.0 L385.6,157.2 L391.8,152.9 L398.0,160.5 L404.2,165.4 L410.4,148.2 L416.6,157.0 L422.8,158.5 L429.0,168.8 L435.2,167.8 L441.4,156.0 L447.6,159.9 L453.8,162.2 L460.0,166.1 L460.0,170 Z" fill="url(#lg)"/>
<polyline points="20.0,153.3 26.2,157.5 32.4,165.7 38.6,152.3 44.8,158.0 51.0,146.9 57.2,160.8 63.4,145.6 69.6,148.5 75.8,160.1 82.0,154.8 88.2,142.0 94.4,165.7 100.6,165.5 106.8,152.1 113.0,169.3 119.2,161.8 125.4,168.5 131.5,164.2 137.7,166.2 143.9,166.9 150.1,156.9 156.3,159.4 162.5,161.7 168.7,156.7 174.9,156.4 181.1,156.5 187.3,167.3 193.5,145.7 199.7,158.8 205.9,157.3 212.1,159.5 218.3,156.8 224.5,156.0 230.7,166.3 236.9,164.3 243.1,153.7 249.3,168.6 255.5,167.6 261.7,157.3 267.9,166.9 274.1,156.2 280.3,164.5 286.5,167.9 292.7,156.0 298.9,167.0 305.1,154.6 311.3,158.3 317.5,164.8 323.7,164.3 329.9,170.0 336.1,160.8 342.3,155.5 348.5,163.4 354.6,157.3 360.8,153.7 367.0,159.6 373.2,151.4 379.4,161.0 385.6,157.2 391.8,152.9 398.0,160.5 404.2,165.4 410.4,148.2 416.6,157.0 422.8,158.5 429.0,168.8 435.2,167.8 441.4,156.0 447.6,159.9 453.8,162.2 460.0,166.1" fill="none" stroke="#3fb950" stroke-width="1.8" stroke-linejoin="round"/>
<circle cx="460.0" cy="166.1" r="3" fill="#3fb950"/>
<text x="20" y="180" font-size="10.5" fill="#8b949e" font-weight="400" text-anchor="start">openapi + app2 · hourly</text>
<text x="460" y="180" font-size="10.5" fill="#8b949e" font-weight="400" text-anchor="end">updated 2026-10-03 23:01 UTC</text>
</svg>